HIERARCHY
ROOT Hips
{
  OFFSET -0.389769 79.5218 83.6019
  CHANNELS 6 Xposition Yposition Zposition Zrotation Xrotation Yrotation
  JOINT Spine
  {
    OFFSET 0 8.5038 -4.6017
    CHANNELS 6 Xposition Yposition Zposition Zrotation Xrotation Yrotation
    JOINT Spine1
    {
      OFFSET 0 7.7603 0.4054
      CHANNELS 6 Xposition Yposition Zposition Zrotation Xrotation Yrotation
      JOINT Spine2
      {
        OFFSET 0 9.6025 -2.1374
        CHANNELS 6 Xposition Yposition Zposition Zrotation Xrotation Yrotation
        JOINT Neck
        {
          OFFSET 0 21.6389 -0.45
          CHANNELS 6 Xposition Yposition Zposition Zrotation Xrotation Yrotation
          JOINT Head
          {
            OFFSET -0.0001 12.2197 3.3238
            CHANNELS 6 Xposition Yposition Zposition Zrotation Xrotation Yrotation
            End Site
            {
              OFFSET 0.0001 17.074 0.5097
            }
          }
        }
        JOINT LeftShoulder
        {
          OFFSET 2.1846 20.8826 7.1545
          CHANNELS 6 Xposition Yposition Zposition Zrotation Xrotation Yrotation
          JOINT LeftArm
          {
            OFFSET 12.7628 2.9953 -4.8467
            CHANNELS 6 Xposition Yposition Zposition Zrotation Xrotation Yrotation
            JOINT LeftForeArm
            {
              OFFSET 27.1108 -0.0961 -0.2349
              CHANNELS 6 Xposition Yposition Zposition Zrotation Xrotation Yrotation
              JOINT LeftHand
              {
                OFFSET 22.6162 0.0656 -0.1355
                CHANNELS 6 Xposition Yposition Zposition Zrotation Xrotation Yrotation
                JOINT LeftHandIndex1
                {
                  OFFSET 8.7654 0.7666 2.4346
                  CHANNELS 6 Xposition Yposition Zposition Zrotation Xrotation Yrotation
                  JOINT LeftHandIndex2
                  {
                    OFFSET 3.2787 -0.7995 0.5777
                    CHANNELS 6 Xposition Yposition Zposition Zrotation Xrotation Yrotation
                    JOINT LeftHandIndex3
                    {
                      OFFSET 2.2383 -0.5459 0.3945
                      CHANNELS 6 Xposition Yposition Zposition Zrotation Xrotation Yrotation
                      End Site
                      {
                        OFFSET 1.5927 -0.4755 0.2584
                      }
                    }
                  }
                }
                JOINT LeftHandMiddle1
                {
                  OFFSET 8.8962 0.8853 0.212
                  CHANNELS 6 Xposition Yposition Zposition Zrotation Xrotation Yrotation
                  JOINT LeftHandMiddle2
                  {
                    OFFSET 4.0539 0.0113 -0.0239
                    CHANNELS 6 Xposition Yposition Zposition Zrotation Xrotation Yrotation
                    JOINT LeftHandMiddle3
                    {
                      OFFSET 2.2471 0.0069 -0.0137
                      CHANNELS 6 Xposition Yposition Zposition Zrotation Xrotation Yrotation
                      End Site
                      {
                        OFFSET 2.0183 -0.1425 0.0027
                      }
                    }
                  }
                }
                JOINT LeftHandRing1
                {
                  OFFSET 8.431 0.5908 -1.9946
                  CHANNELS 6 Xposition Yposition Zposition Zrotation Xrotation Yrotation
                  JOINT LeftHandRing2
                  {
                    OFFSET 3.6785 -0.1862 -0.2303
                    CHANNELS 6 Xposition Yposition Zposition Zrotation Xrotation Yrotation
                    JOINT LeftHandRing3
                    {
                      OFFSET 2.0962 -0.1055 -0.1317
                      CHANNELS 6 Xposition Yposition Zposition Zrotation Xrotation Yrotation
                      End Site
                      {
                        OFFSET 1.8534 -0.2279 -0.0876
                      }
                    }
                  }
                }
                JOINT LeftHandPinky1
                {
                  OFFSET 7.8236 -0.5945 -3.4447
                  CHANNELS 6 Xposition Yposition Zposition Zrotation Xrotation Yrotation
                  JOINT LeftHandPinky2
                  {
                    OFFSET 2.2626 -0.4719 -0.6246
                    CHANNELS 6 Xposition Yposition Zposition Zrotation Xrotation Yrotation
                    JOINT LeftHandPinky3
                    {
                      OFFSET 1.6592 -0.3455 -0.4583
                      CHANNELS 6 Xposition Yposition Zposition Zrotation Xrotation Yrotation
                      End Site
                      {
                        OFFSET 1.4727 -0.4046 -0.3379
                      }
                    }
                  }
                }
                JOINT LeftHandThumb1
                {
                  OFFSET 1.8133 -1.3724 1.3746
                  CHANNELS 6 Xposition Yposition Zposition Zrotation Xrotation Yrotation
                  JOINT LeftHandThumb2
                  {
                    OFFSET 3.376 -1.1087 2.5453
                    CHANNELS 6 Xposition Yposition Zposition Zrotation Xrotation Yrotation
                    JOINT LeftHandThumb3
                    {
                      OFFSET 2.223 -0.7955 1.6016
                      CHANNELS 6 Xposition Yposition Zposition Zrotation Xrotation Yrotation
                      End Site
                      {
                        OFFSET 1.6347 -0.5627 1.1194
                      }
                    }
                  }
                }
              }
            }
          }
        }
        JOINT RightShoulder
        {
          OFFSET -2.1846 20.8826 7.1545
          CHANNELS 6 Xposition Yposition Zposition Zrotation Xrotation Yrotation
          JOINT RightArm
          {
            OFFSET -12.7651 2.9958 -4.8475
            CHANNELS 6 Xposition Yposition Zposition Zrotation Xrotation Yrotation
            JOINT RightForeArm
            {
              OFFSET -27.1108 -0.0961 -0.2349
              CHANNELS 6 Xposition Yposition Zposition Zrotation Xrotation Yrotation
              JOINT RightHand
              {
                OFFSET -22.6162 0.0656 -0.1355
                CHANNELS 6 Xposition Yposition Zposition Zrotation Xrotation Yrotation
                JOINT RightHandIndex1
                {
                  OFFSET -8.7654 0.7667 2.4346
                  CHANNELS 6 Xposition Yposition Zposition Zrotation Xrotation Yrotation
                  JOINT RightHandIndex2
                  {
                    OFFSET -3.2787 -0.7995 0.5777
                    CHANNELS 6 Xposition Yposition Zposition Zrotation Xrotation Yrotation
                    JOINT RightHandIndex3
                    {
                      OFFSET -2.2383 -0.5461 0.3945
                      CHANNELS 6 Xposition Yposition Zposition Zrotation Xrotation Yrotation
                      End Site
                      {
                        OFFSET -1.5928 -0.4755 0.2584
                      }
                    }
                  }
                }
                JOINT RightHandMiddle1
                {
                  OFFSET -8.8962 0.8853 0.212
                  CHANNELS 6 Xposition Yposition Zposition Zrotation Xrotation Yrotation
                  JOINT RightHandMiddle2
                  {
                    OFFSET -4.0539 0.0113 -0.024
                    CHANNELS 6 Xposition Yposition Zposition Zrotation Xrotation Yrotation
                    JOINT RightHandMiddle3
                    {
                      OFFSET -2.2471 0.0069 -0.0137
                      CHANNELS 6 Xposition Yposition Zposition Zrotation Xrotation Yrotation
                      End Site
                      {
                        OFFSET -2.0183 -0.1425 0.0027
                      }
                    }
                  }
                }
                JOINT RightHandRing1
                {
                  OFFSET -8.431 0.5908 -1.9946
                  CHANNELS 6 Xposition Yposition Zposition Zrotation Xrotation Yrotation
                  JOINT RightHandRing2
                  {
                    OFFSET -3.6785 -0.1862 -0.2303
                    CHANNELS 6 Xposition Yposition Zposition Zrotation Xrotation Yrotation
                    JOINT RightHandRing3
                    {
                      OFFSET -2.0962 -0.1055 -0.1317
                      CHANNELS 6 Xposition Yposition Zposition Zrotation Xrotation Yrotation
                      End Site
                      {
                        OFFSET -1.8534 -0.2279 -0.0876
                      }
                    }
                  }
                }
                JOINT RightHandPinky1
                {
                  OFFSET -7.8236 -0.5945 -3.4447
                  CHANNELS 6 Xposition Yposition Zposition Zrotation Xrotation Yrotation
                  JOINT RightHandPinky2
                  {
                    OFFSET -2.2626 -0.4718 -0.624601
                    CHANNELS 6 Xposition Yposition Zposition Zrotation Xrotation Yrotation
                    JOINT RightHandPinky3
                    {
                      OFFSET -1.6592 -0.3454 -0.4583
                      CHANNELS 6 Xposition Yposition Zposition Zrotation Xrotation Yrotation
                      End Site
                      {
                        OFFSET -1.4727 -0.4046 -0.3379
                      }
                    }
                  }
                }
                JOINT RightHandThumb1
                {
                  OFFSET -1.8133 -1.3723 1.3745
                  CHANNELS 6 Xposition Yposition Zposition Zrotation Xrotation Yrotation
                  JOINT RightHandThumb2
                  {
                    OFFSET -3.3759 -1.1088 2.5454
                    CHANNELS 6 Xposition Yposition Zposition Zrotation Xrotation Yrotation
                    JOINT RightHandThumb3
                    {
                      OFFSET -2.223 -0.7954 1.6016
                      CHANNELS 6 Xposition Yposition Zposition Zrotation Xrotation Yrotation
                      End Site
                      {
                        OFFSET -1.6347 -0.5627 1.1194
                      }
                    }
                  }
                }
              }
            }
          }
        }
      }
    }
  }
  JOINT RightUpLeg
  {
    OFFSET -9.0969 3.8439 -0.7498
    CHANNELS 6 Xposition Yposition Zposition Zrotation Xrotation Yrotation
    JOINT RightLeg
    {
      OFFSET -0.7279 -39.5674 0
      CHANNELS 6 Xposition Yposition Zposition Zrotation Xrotation Yrotation
      JOINT RightFoot
      {
        OFFSET 0 -38.8528 0
        CHANNELS 6 Xposition Yposition Zposition Zrotation Xrotation Yrotation
        JOINT RightToeBase
        {
          OFFSET 0 -4.2703 8.9297
          CHANNELS 6 Xposition Yposition Zposition Zrotation Xrotation Yrotation
          End Site
          {
            OFFSET 0 0 5.9906
          }
        }
      }
    }
  }
  JOINT LeftUpLeg
  {
    OFFSET 9.0968 3.8442 -0.7498
    CHANNELS 6 Xposition Yposition Zposition Zrotation Xrotation Yrotation
    JOINT LeftLeg
    {
      OFFSET 0.728 -39.5676 0
      CHANNELS 6 Xposition Yposition Zposition Zrotation Xrotation Yrotation
      JOINT LeftFoot
      {
        OFFSET 0 -38.8528 0
        CHANNELS 6 Xposition Yposition Zposition Zrotation Xrotation Yrotation
        JOINT LeftToeBase
        {
          OFFSET 0 -4.2703 8.9297
          CHANNELS 6 Xposition Yposition Zposition Zrotation Xrotation Yrotation
          End Site
          {
            OFFSET 0 0 5.9906
          }
        }
      }
    }
  }
}
MOTION
Frames:	4
Frame Time:	0.0333333
-35.4073 64.4026 130.284 -16.9267 24.0019 74.8359 0 8.5038 -4.6017 8.25031 8.53127 -3.22905 0 7.7603 0.4054 17.2526 16.4847 -7.79991 -7.10543e-015 9.6025 -2.1374 17.2526 16.4847 -7.7999 0 21.6389 -0.45 -0.000291373 -0.000352362 6.65526e-005 -0.0001 12.2197 3.3238 -7.01529 12.9852 -47.018 2.1846 20.8826 7.1545 12.8206 -4.53106 -19.121 12.7628 2.9953 -4.8467 -17.4982 34.3318 -63.4103 27.1108 -0.0961 -0.2349 -1.22508 -2.23165 -61.7428 22.6162 0.0656 -0.1355 -45.779 -9.16807 -9.79491 8.7654 0.7666 2.4346 -6.16759 5.49353 8.71296 3.2787 -0.7995 0.5777 -21.3144 7.19226 2.72592 2.2383 -0.5459 0.3945 -34.4731 10.8519 5.61702 8.8962 0.8853 0.212 -19.8826 1.85815 -1.72206 4.0539 0.0113 -0.0239 -10.5648 1.31786 -0.0826401 2.2471 0.0069 -0.0137 -26.9367 3.32775 0.267756 8.431 0.5908 -1.9946 -18.015 -4.64453 -11.4015 3.6785 -0.1862 -0.2303 -0.652566 -0.103955 -0.128554 2.0962 -0.1055 -0.1317 -7.48198 -1.09734 -1.53885 7.8236 -0.5945 -3.4447 4.67122 -10.0716 -31.7973 2.2626 -0.4719 -0.6246 -0.156973 0.785411 1.31369 1.6592 -0.3455 -0.4583 1.61834 0.816077 0.454368 1.8133 -1.3724 1.3746 -1.23231 -29.8737 10.1937 3.376 -1.1087 2.5453 2.70606 4.18074 7.03877 2.223 -0.7955 1.6016 1.65947 2.42909 4.17825 -2.1846 20.8826 7.1545 -8.898 -2.49604 16.3961 -12.7651 2.9958 -4.8475 23.8866 -17.9907 59.3759 -27.1108 -0.0961 -0.2349 3.58848 -2.32317 119.004 -22.6162 0.0656 -0.1355 25.6626 -14.0342 1.9976 -8.7654 0.7667 2.4346 -0.88934 4.12646 -7.81715 -3.2787 -0.7995 0.5777 12.8241 4.39255 -1.31442 -2.2383 -0.5461 0.3945 22.303 7.35471 -2.88431 -8.8962 0.8853 0.212 4.59849 0.544722 0.0668563 -4.0539 0.0113 -0.024 5.77474 0.684697 0.0768504 -2.2471 0.0069 -0.0137 12.8677 1.53094 0.0765147 -8.431 0.5908 -1.9946 2.17934 0.0391329 12.2002 -3.6785 -0.1862 -0.2303 0.0258496 0.16618 -0.336061 -2.0962 -0.1055 -0.1317 8.49735 -1.2799 1.76294 -7.8236 -0.5945 -3.4447 -6.99406 -4.68759 25.054 -2.2626 -0.4718 -0.624601 0.120748 0.570791 -0.909369 -1.6592 -0.3454 -0.4583 -9.44602 5.03839 -2.34035 -1.8133 -1.3723 1.3745 1.41633 -30.6614 -11.1247 -3.3759 -1.1088 2.5454 -2.45177 3.78855 -6.38537 -2.223 -0.7954 1.6016 -3.89382 6.54185 -10.7037 -9.0969 3.8439 -0.7498 -70.6609 -68.8407 -38.7167 -0.7279 -39.5674 -3.55271e-015 18.1377 68.6777 -24.3096 2.84217e-014 -38.8528 0 24.414 -11.0569 15.6519 0 -4.2703 8.9297 0.140029 0.355056 -0.424726 9.0968 3.8442 -0.7498 21.5057 -18.9157 47.3027 0.728 -39.5676 0 0.165798 16.7277 0.239467 -7.10543e-015 -38.8528 -7.10543e-015 -40.3369 6.29262 1.01559 -1.42109e-014 -4.2703 8.9297 -0.135413 0.356813 0.424812 
-35.3681 64.441 130.236 -16.9753 24.0459 74.8022 1.42109e-014 8.5038 -4.6017 8.25441 8.55017 -3.2184 0 7.7603 0.4054 17.2619 16.5235 -7.78262 7.10543e-015 9.6025 -2.1374 17.2619 16.5235 -7.78259 -7.10543e-015 21.6389 -0.45 -0.000314837 -0.000344498 5.68951e-005 -0.0001 12.2197 3.3238 -7.25065 12.7609 -46.9433 2.1846 20.8826 7.1545 12.7858 -4.50994 -19.0886 12.7628 2.9953 -4.8467 -17.3688 34.1203 -63.4697 27.1108 -0.0961 -0.2349 -1.22218 -2.23 -61.6641 22.6162 0.0656 -0.1355 -45.8603 -9.20045 -10.0092 8.7654 0.7666 2.4346 -6.16761 5.49353 8.71299 3.2787 -0.7995 0.5777 -21.3144 7.19226 2.72591 2.2383 -0.5459 0.3945 -34.4732 10.8519 5.61705 8.8962 0.8853 0.212 -19.8826 1.85814 -1.72207 4.0539 0.0113 -0.0239 -10.5648 1.31784 -0.0826209 2.2471 0.0069 -0.0137 -26.9367 3.32774 0.267752 8.431 0.5908 -1.9946 -18.015 -4.64455 -11.4015 3.6785 -0.1862 -0.2303 -0.652578 -0.103954 -0.128557 2.0962 -0.1055 -0.1317 -7.48199 -1.09734 -1.53886 7.8236 -0.5945 -3.4447 4.67122 -10.0717 -31.7973 2.2626 -0.4719 -0.6246 -0.156916 0.785436 1.31368 1.6592 -0.3455 -0.4583 1.61834 0.816066 0.454378 1.8133 -1.3724 1.3746 -1.23229 -29.8737 10.1937 3.376 -1.1087 2.5453 2.70605 4.18074 7.03878 2.223 -0.7955 1.6016 1.65947 2.42909 4.17824 -2.1846 20.8826 7.1545 -8.7628 -2.45047 16.3641 -12.7651 2.9958 -4.8475 23.8261 -18.1898 59.4675 -27.1108 -0.0961 -0.2349 3.58081 -2.32691 118.81 -22.6162 0.0656 -0.1355 25.6693 -14.0929 2.15031 -8.7654 0.7667 2.4346 -0.923715 4.12598 -7.82439 -3.2787 -0.7995 0.5777 12.7668 4.37379 -1.30642 -2.2383 -0.5461 0.3945 22.2693 7.34474 -2.8779 -8.8962 0.8853 0.212 4.57247 0.541628 0.0666012 -4.0539 0.0113 -0.024 6.08751 0.721997 0.0790474 -2.2471 0.0069 -0.0137 12.8536 1.52925 0.0766181 -8.431 0.5908 -1.9946 2.27959 0.183124 12.2768 -3.6785 -0.1862 -0.2303 0.0263482 0.172161 -0.348617 -2.0962 -0.1055 -0.1317 8.42918 -1.2707 1.74809 -7.8236 -0.5945 -3.4447 -6.92028 -4.68143 24.9909 -2.2626 -0.4718 -0.624601 0.128211 0.613985 -0.981516 -1.6592 -0.3454 -0.4583 -9.32133 4.969 -2.31467 -1.8133 -1.3723 1.3745 1.38576 -30.6551 -11.232 -3.3759 -1.1088 2.5454 -2.46083 3.80443 -6.41095 -2.223 -0.7954 1.6016 -3.90523 6.56573 -10.7403 -9.0969 3.8439 -0.7498 -70.7606 -68.8085 -38.8277 -0.7279 -39.5674 3.55271e-015 17.9949 68.5791 -24.158 0 -38.8528 0 24.4254 -11.0009 15.6894 2.84217e-014 -4.2703 8.9297 0.140027 0.355067 -0.424691 9.0968 3.8442 -0.7498 21.4216 -18.9123 47.3649 0.728 -39.5676 0 0.166519 16.6679 0.237254 0 -38.8528 -7.10543e-015 -40.3092 6.27671 1.03227 0 -4.2703 8.9297 -0.135412 0.356813 0.424822 
-35.2641 64.5246 130.113 -17.0856 24.179 74.8047 0 8.5038 -4.6017 8.26529 8.59576 -3.21241 0 7.7603 0.4054 17.289 16.6141 -7.78055 -7.10543e-015 9.6025 -2.1374 17.289 16.6141 -7.78053 -7.10543e-015 21.6389 -0.45 -0.000313714 -0.000341787 5.63277e-005 -0.0001 12.2197 3.3238 -7.6413 12.1409 -46.682 2.1846 20.8826 7.1545 12.9015 -4.5677 -19.1438 12.7628 2.9953 -4.8467 -17.3148 33.6787 -63.315 27.1108 -0.0961 -0.2349 -1.22461 -2.23148 -61.7319 22.6162 0.0656 -0.1355 -45.8669 -9.29914 -10.3681 8.7654 0.7666 2.4346 -6.16761 5.49353 8.71297 3.2787 -0.7995 0.5777 -21.3144 7.19223 2.72592 2.2383 -0.5459 0.3945 -34.4731 10.8519 5.61703 8.8962 0.8853 0.212 -19.8826 1.8582 -1.72205 4.0539 0.0113 -0.0239 -10.5648 1.31782 -0.0826195 2.2471 0.0069 -0.0137 -26.9367 3.32779 0.267747 8.431 0.5908 -1.9946 -18.015 -4.6445 -11.4015 3.6785 -0.1862 -0.2303 -0.652578 -0.103885 -0.128584 2.0962 -0.1055 -0.1317 -7.48198 -1.09729 -1.53888 7.8236 -0.5945 -3.4447 4.67123 -10.0716 -31.7973 2.2626 -0.4719 -0.6246 -0.157021 0.785415 1.31368 1.6592 -0.3455 -0.4583 1.61836 0.816009 0.454434 1.8133 -1.3724 1.3746 -1.23228 -29.8737 10.1937 3.376 -1.1087 2.5453 2.70607 4.18077 7.03874 2.223 -0.7955 1.6016 1.65946 2.42906 4.17827 -2.1846 20.8826 7.1545 -8.64921 -2.37176 16.0687 -12.7651 2.9958 -4.8475 23.937 -18.5999 59.9906 -27.1108 -0.0961 -0.2349 3.55771 -2.33824 118.216 -22.6162 0.0656 -0.1355 25.7404 -14.1163 2.65421 -8.7654 0.7667 2.4346 -0.935172 4.13803 -7.84824 -3.2787 -0.7995 0.5777 12.6627 4.33966 -1.29196 -2.2383 -0.5461 0.3945 22.1808 7.31852 -2.86111 -8.8962 0.8853 0.212 4.64501 0.550245 0.0673268 -4.0539 0.0113 -0.024 6.72744 0.798313 0.0828998 -2.2471 0.0069 -0.0137 12.8807 1.5325 0.0764161 -8.431 0.5908 -1.9946 2.54631 0.486737 12.4446 -3.6785 -0.1862 -0.2303 0.0264945 0.178607 -0.362061 -2.0962 -0.1055 -0.1317 8.28476 -1.25119 1.71669 -7.8236 -0.5945 -3.4447 -6.76887 -4.66781 24.8492 -2.2626 -0.4718 -0.624601 0.139475 0.678269 -1.09011 -1.6592 -0.3454 -0.4583 -9.12206 4.85821 -2.27329 -1.8133 -1.3723 1.3745 1.3079 -30.6208 -11.5108 -3.3759 -1.1088 2.5454 -2.4787 3.83579 -6.46141 -2.223 -0.7954 1.6016 -3.92799 6.6135 -10.8133 -9.0969 3.8439 -0.7498 -71.0556 -68.6886 -39.0454 -0.7279 -39.5674 -3.55271e-015 17.7194 68.3872 -23.8653 0 -38.8528 0 24.508 -10.9186 15.7379 0 -4.2703 8.9297 0.140028 0.355059 -0.424709 9.0968 3.8442 -0.7498 21.1781 -18.9465 47.4688 0.728 -39.5676 -3.55271e-015 0.167775 16.5556 0.238257 7.10543e-015 -38.8528 0 -40.23 6.25793 0.998202 0 -4.2703 8.9297 -0.135365 0.356824 0.424785 
-35.1445 64.6025 129.988 -17.1984 24.3276 74.8519 1.42109e-014 8.5038 -4.6017 8.27583 8.64267 -3.20988 0 7.7603 0.4054 17.3161 16.7068 -7.78573 -1.42109e-014 9.6025 -2.1374 17.3161 16.7068 -7.78574 7.10543e-015 21.6389 -0.45 -0.000309125 -0.000333963 -2.35938e-006 -0.0001 12.2197 3.3238 -7.87311 11.4511 -46.4245 2.1846 20.8826 7.1545 13.0046 -4.63077 -19.2407 12.7628 2.9953 -4.8467 -17.1944 33.2165 -63.0818 27.1108 -0.0961 -0.2349 -1.23272 -2.23617 -61.9464 22.6162 0.0656 -0.1355 -45.7956 -9.42976 -10.6645 8.7654 0.7666 2.4346 -6.16759 5.49347 8.71297 3.2787 -0.7995 0.5777 -21.3144 7.19224 2.72591 2.2383 -0.5459 0.3945 -34.4731 10.852 5.61703 8.8962 0.8853 0.212 -19.8826 1.85827 -1.72202 4.0539 0.0113 -0.0239 -10.5649 1.31783 -0.0826229 2.2471 0.0069 -0.0137 -26.9367 3.32785 0.267733 8.431 0.5908 -1.9946 -18.015 -4.64445 -11.4015 3.6785 -0.1862 -0.2303 -0.652562 -0.103797 -0.128616 2.0962 -0.1055 -0.1317 -7.48199 -1.09722 -1.53893 7.8236 -0.5945 -3.4447 4.67123 -10.0715 -31.7973 2.2626 -0.4719 -0.6246 -0.156935 0.785398 1.3137 1.6592 -0.3455 -0.4583 1.61837 0.816012 0.454432 1.8133 -1.3724 1.3746 -1.23232 -29.8737 10.1938 3.376 -1.1087 2.5453 2.70605 4.18072 7.03878 2.223 -0.7955 1.6016 1.65946 2.42907 4.17826 -2.1846 20.8826 7.1545 -8.59664 -2.31096 15.7652 -12.7651 2.9958 -4.8475 24.1289 -19.0134 60.5346 -27.1108 -0.0961 -0.2349 3.53408 -2.34954 117.609 -22.6162 0.0656 -0.1355 25.7574 -14.0805 3.1457 -8.7654 0.7667 2.4346 -0.87556 4.16583 -7.88287 -3.2787 -0.7995 0.5777 12.5669 4.30819 -1.27865 -2.2383 -0.5461 0.3945 22.0643 7.28397 -2.83901 -8.8962 0.8853 0.212 4.77141 0.565312 0.0685176 -4.0539 0.0113 -0.024 7.27354 0.863442 0.0855012 -2.2471 0.0069 -0.0137 12.8689 1.53109 0.0765069 -8.431 0.5908 -1.9946 2.87172 0.806101 12.6285 -3.6785 -0.1862 -0.2303 0.026776 0.179349 -0.363679 -2.0962 -0.1055 -0.1317 8.11204 -1.22774 1.67919 -7.8236 -0.5945 -3.4447 -6.57756 -4.65202 24.7081 -2.2626 -0.4718 -0.624601 0.14579 0.714759 -1.15225 -1.6592 -0.3454 -0.4583 -9.00473 4.79307 -2.24876 -1.8133 -1.3723 1.3745 1.24177 -30.6092 -11.7641 -3.3759 -1.1088 2.5454 -2.4961 3.86628 -6.5105 -2.223 -0.7954 1.6016 -3.95025 6.66056 -10.8852 -9.0969 3.8439 -0.7498 -71.3987 -68.5398 -39.2604 -0.7279 -39.5674 0 17.4905 68.2255 -23.6218 2.84217e-014 -38.8528 0 24.6219 -10.8694 15.7799 0 -4.2703 8.9297 0.140027 0.355071 -0.424691 9.0968 3.8442 -0.7498 20.9218 -19.0126 47.5539 0.728 -39.5676 7.10543e-015 0.16818 16.4879 0.248637 0 -38.8528 0 -40.1431 6.23378 0.933425 0 -4.2703 8.9297 -0.135381 0.356837 0.42473 
